<svg width="32" height="32" fill="none" xmlns="http://www.w3.org/2000/svg"><path d="M11.345 0h9.31a5.91 5.91 0 0 1 4.395 1.96l5.435 6.045a5.91 5.91 0 0 1 .17 7.704L20.566 27.984a5.91 5.91 0 0 1-9.132 0L1.344 15.71a5.91 5.91 0 0 1 .171-7.704L6.95 1.959A5.91 5.91 0 0 1 11.345 0zm0 4.597c-.373 0-.728.158-.977.435l-5.434 6.046a1.313 1.313 0 0 0-.038 1.712l10.09 12.275a1.313 1.313 0 0 0 2.03 0L27.103 12.79a1.313 1.313 0 0 0-.038-1.712l-5.434-6.046a1.313 1.313 0 0 0-.977-.435h-9.31z" fill="#EB4C82"/></svg>